<svg width="259" height="50" viewBox="0 0 259 50" fill="none" xmlns="http://www.w3.org/2000/svg">
<path d="M16 33.1758L15.5039 32.8857L1.98535 25L15.5039 17.1143L16 16.8242V1H243V16.8242L243.496 17.1143L257.014 25L243.496 32.8857L243 33.1758V49H16V33.1758Z" fill="#EEEEEE" stroke="#BB8C5F" stroke-width="2"/>
<path d="M49.9 19.16L46 29.4H44.2L49.9 15.3L55.6 29.4H53.8L49.9 19.16ZM55.5 30H44.3V32.2H42.8V28.4H57V32.2H55.5V30ZM58.5984 25.4C58.5984 24.4667 58.8051 23.64 59.2184 22.92C59.6451 22.2 60.2184 21.6333 60.9384 21.22C61.6584 20.8067 62.4651 20.6 63.3584 20.6C64.2651 20.6 65.0718 20.8067 65.7784 21.22C66.4984 21.6333 67.0651 22.2 67.4784 22.92C67.9051 23.64 68.1184 24.4667 68.1184 25.4C68.1184 26.32 67.9051 27.1467 67.4784 27.88C67.0651 28.6 66.4984 29.1667 65.7784 29.58C65.0718 29.9933 64.2651 30.2 63.3584 30.2C62.4651 30.2 61.6584 29.9933 60.9384 29.58C60.2184 29.1667 59.6451 28.6 59.2184 27.88C58.8051 27.1467 58.5984 26.32 58.5984 25.4ZM60.2184 25.4C60.2184 26.04 60.3518 26.6067 60.6184 27.1C60.8984 27.5933 61.2718 27.9867 61.7384 28.28C62.2184 28.56 62.7584 28.7 63.3584 28.7C63.9584 28.7 64.4918 28.56 64.9584 28.28C65.4384 27.9867 65.8118 27.5933 66.0784 27.1C66.3584 26.6067 66.4984 26.04 66.4984 25.4C66.4984 24.76 66.3584 24.1933 66.0784 23.7C65.8118 23.1933 65.4384 22.8 64.9584 22.52C64.4918 22.24 63.9584 22.1 63.3584 22.1C62.7584 22.1 62.2184 22.24 61.7384 22.52C61.2718 22.8 60.8984 23.1933 60.6184 23.7C60.3518 24.1933 60.2184 24.76 60.2184 25.4ZM74.2764 22.1V20.6C75.1831 20.6 75.9897 20.8067 76.6964 21.22C77.4164 21.6333 77.9831 22.2 78.3964 22.92C78.8231 23.64 79.0364 24.4667 79.0364 25.4C79.0364 26.32 78.8231 27.1467 78.3964 27.88C77.9831 28.6 77.4164 29.1667 76.6964 29.58C75.9897 29.9933 75.1831 30.2 74.2764 30.2C73.3831 30.2 72.5764 29.98 71.8564 29.54C71.1364 29.0867 70.5631 28.4133 70.1364 27.52C69.7231 26.6267 69.5164 25.52 69.5164 24.2L71.1164 25.4C71.1164 26.04 71.2564 26.6067 71.5364 27.1C71.8164 27.5933 72.1897 27.9867 72.6564 28.28C73.1364 28.56 73.6764 28.7 74.2764 28.7C74.8764 28.7 75.4097 28.56 75.8764 28.28C76.3564 27.9867 76.7297 27.5933 76.9964 27.1C77.2764 26.6067 77.4164 26.04 77.4164 25.4C77.4164 24.76 77.2764 24.1933 76.9964 23.7C76.7297 23.1933 76.3564 22.8 75.8764 22.52C75.4097 22.24 74.8764 22.1 74.2764 22.1ZM70.3964 25.4C70.3964 24.6533 70.4897 23.9867 70.6764 23.4C70.8631 22.8 71.1297 22.2933 71.4764 21.88C71.8231 21.4667 72.2297 21.1533 72.6964 20.94C73.1764 20.7133 73.7031 20.6 74.2764 20.6V22.1C73.9297 22.1 73.5697 22.1733 73.1964 22.32C72.8231 22.4667 72.4764 22.68 72.1564 22.96C71.8497 23.24 71.5964 23.5867 71.3964 24C71.2097 24.4 71.1164 24.8667 71.1164 25.4H70.3964ZM69.5164 24.2C69.5164 22.9467 69.6364 21.84 69.8764 20.88C70.1164 19.92 70.5364 19.1067 71.1364 18.44C71.7497 17.76 72.5897 17.24 73.6564 16.88C74.5631 16.5733 75.2364 16.2067 75.6764 15.78C76.1297 15.34 76.4031 14.88 76.4964 14.4H78.0764C78.0097 14.9867 77.7964 15.5267 77.4364 16.02C77.0764 16.5 76.6031 16.92 76.0164 17.28C75.4431 17.64 74.7897 17.94 74.0564 18.18C73.2297 18.4467 72.5831 18.8467 72.1164 19.38C71.6631 19.9133 71.3497 20.52 71.1764 21.2C71.0031 21.8667 70.9164 22.5333 70.9164 23.2V25.26L69.5164 24.2ZM81.9544 27.3C81.9544 27.62 82.041 27.8933 82.2144 28.12C82.3877 28.3333 82.621 28.5 82.9144 28.62C83.2077 28.7267 83.5344 28.78 83.8944 28.78C84.4277 28.78 84.901 28.7 85.3144 28.54C85.7277 28.38 86.0477 28.1267 86.2744 27.78C86.5144 27.4333 86.6344 26.9733 86.6344 26.4L86.9544 27.4C86.9544 27.9867 86.7944 28.4933 86.4744 28.92C86.1677 29.3333 85.7544 29.6533 85.2344 29.88C84.7144 30.0933 84.1344 30.2 83.4944 30.2C82.921 30.2 82.3944 30.0933 81.9144 29.88C81.4344 29.6667 81.0477 29.3533 80.7544 28.94C80.4744 28.5133 80.3344 27.9867 80.3344 27.36C80.3344 26.7067 80.4944 26.1533 80.8144 25.7C81.1344 25.2467 81.5877 24.9 82.1744 24.66C82.761 24.4067 83.4544 24.28 84.2544 24.28C84.841 24.28 85.341 24.36 85.7544 24.52C86.181 24.6667 86.521 24.84 86.7744 25.04C87.0277 25.2267 87.201 25.38 87.2944 25.5V26.44C86.841 26.12 86.381 25.8867 85.9144 25.74C85.4477 25.58 84.921 25.5 84.3344 25.5C83.801 25.5 83.3544 25.5733 82.9944 25.72C82.6477 25.8667 82.3877 26.0733 82.2144 26.34C82.041 26.6067 81.9544 26.9267 81.9544 27.3ZM81.9544 22.96L81.1744 21.74C81.521 21.4867 81.9877 21.2333 82.5744 20.98C83.161 20.7267 83.8677 20.6 84.6944 20.6C85.401 20.6 86.0144 20.7133 86.5344 20.94C87.0677 21.1533 87.481 21.4667 87.7744 21.88C88.081 22.2933 88.2344 22.8 88.2344 23.4V30H86.6344V23.4C86.6344 22.9333 86.4344 22.5867 86.0344 22.36C85.6477 22.12 85.201 22 84.6944 22C84.2544 22 83.8544 22.06 83.4944 22.18C83.1344 22.2867 82.821 22.42 82.5544 22.58C82.301 22.7267 82.101 22.8533 81.9544 22.96ZM91.8814 25.2H94.5414C95.1814 25.2 95.7547 25.2667 96.2614 25.4C96.7681 25.5333 97.1681 25.7667 97.4614 26.1C97.7547 26.4333 97.9014 26.9 97.9014 27.5C97.9014 28.1933 97.6681 28.7867 97.2014 29.28C96.7481 29.76 95.9947 30 94.9414 30H91.8814V28.6H94.5414C95.1414 28.6 95.5814 28.4733 95.8614 28.22C96.1547 27.9667 96.3014 27.66 96.3014 27.3C96.3014 27.1133 96.2614 26.9467 96.1814 26.8C96.1147 26.6533 96.0081 26.52 95.8614 26.4C95.7281 26.28 95.5481 26.1933 95.3214 26.14C95.1081 26.0733 94.8481 26.04 94.5414 26.04H91.8814V25.2ZM91.8814 25.6V24.66H94.3414C94.5814 24.66 94.7947 24.6333 94.9814 24.58C95.1814 24.5133 95.3481 24.42 95.4814 24.3C95.6147 24.18 95.7147 24.0467 95.7814 23.9C95.8614 23.74 95.9014 23.5733 95.9014 23.4C95.9014 23.04 95.7614 22.7533 95.4814 22.54C95.2014 22.3133 94.8214 22.2 94.3414 22.2H91.8814V20.8H94.3414C94.9147 20.8 95.4347 20.8867 95.9014 21.06C96.3814 21.22 96.7681 21.4867 97.0614 21.86C97.3547 22.22 97.5014 22.7 97.5014 23.3C97.5014 23.82 97.3547 24.2533 97.0614 24.6C96.7681 24.9333 96.3814 25.1867 95.9014 25.36C95.4347 25.52 94.9147 25.6 94.3414 25.6H91.8814ZM90.9414 20.8H92.5414V30H90.9414V20.8ZM107.704 22.4L100.104 30.7L100.204 28.4L107.804 20.1L107.704 22.4ZM101.704 20.8V28.5L100.104 30.7V20.8H101.704ZM107.804 20.1V30H106.204V22.3L107.804 20.1ZM109.502 20.8H114.902V22.3H109.502V20.8ZM111.402 21.2H113.002V30H111.402V21.2ZM116.508 20.8H118.108V30H116.508V20.8ZM117.448 25.68V24.28H120.308C121.254 24.28 122.048 24.5133 122.688 24.98C123.341 25.4333 123.668 26.1533 123.668 27.14C123.668 27.7933 123.521 28.3333 123.228 28.76C122.934 29.1867 122.534 29.5 122.028 29.7C121.521 29.9 120.948 30 120.308 30H117.448V28.6H120.308C120.694 28.6 121.014 28.5467 121.268 28.44C121.534 28.32 121.734 28.1533 121.868 27.94C122.001 27.7133 122.068 27.4467 122.068 27.14C122.068 26.6733 121.921 26.3133 121.628 26.06C121.334 25.8067 120.894 25.68 120.308 25.68H117.448ZM133.112 25.2H135.772C136.412 25.2 136.985 25.2667 137.492 25.4C137.999 25.5333 138.399 25.7667 138.692 26.1C138.985 26.4333 139.132 26.9 139.132 27.5C139.132 28.1933 138.899 28.7867 138.432 29.28C137.979 29.76 137.225 30 136.172 30H133.112V28.6H135.772C136.372 28.6 136.812 28.4733 137.092 28.22C137.385 27.9667 137.532 27.66 137.532 27.3C137.532 27.1133 137.492 26.9467 137.412 26.8C137.345 26.6533 137.239 26.52 137.092 26.4C136.959 26.28 136.779 26.1933 136.552 26.14C136.339 26.0733 136.079 26.04 135.772 26.04H133.112V25.2ZM133.112 25.6V24.66H135.572C135.812 24.66 136.025 24.6333 136.212 24.58C136.412 24.5133 136.579 24.42 136.712 24.3C136.845 24.18 136.945 24.0467 137.012 23.9C137.092 23.74 137.132 23.5733 137.132 23.4C137.132 23.04 136.992 22.7533 136.712 22.54C136.432 22.3133 136.052 22.2 135.572 22.2H133.112V20.8H135.572C136.145 20.8 136.665 20.8867 137.132 21.06C137.612 21.22 137.999 21.4867 138.292 21.86C138.585 22.22 138.732 22.7 138.732 23.3C138.732 23.82 138.585 24.2533 138.292 24.6C137.999 24.9333 137.612 25.1867 137.132 25.36C136.665 25.52 136.145 25.6 135.572 25.6H133.112ZM132.172 20.8H133.772V30H132.172V20.8ZM147.13 20.8H148.73V30H147.13V20.8ZM152.13 20.8H154.13L150.13 24.6L154.53 30H152.53L148.13 24.6L152.13 20.8ZM154.946 25.4C154.946 24.4667 155.153 23.64 155.566 22.92C155.993 22.2 156.566 21.6333 157.286 21.22C158.006 20.8067 158.813 20.6 159.706 20.6C160.613 20.6 161.419 20.8067 162.126 21.22C162.846 21.6333 163.413 22.2 163.826 22.92C164.253 23.64 164.466 24.4667 164.466 25.4C164.466 26.32 164.253 27.1467 163.826 27.88C163.413 28.6 162.846 29.1667 162.126 29.58C161.419 29.9933 160.613 30.2 159.706 30.2C158.813 30.2 158.006 29.9933 157.286 29.58C156.566 29.1667 155.993 28.6 155.566 27.88C155.153 27.1467 154.946 26.32 154.946 25.4ZM156.566 25.4C156.566 26.04 156.699 26.6067 156.966 27.1C157.246 27.5933 157.619 27.9867 158.086 28.28C158.566 28.56 159.106 28.7 159.706 28.7C160.306 28.7 160.839 28.56 161.306 28.28C161.786 27.9867 162.159 27.5933 162.426 27.1C162.706 26.6067 162.846 26.04 162.846 25.4C162.846 24.76 162.706 24.1933 162.426 23.7C162.159 23.1933 161.786 22.8 161.306 22.52C160.839 22.24 160.306 22.1 159.706 22.1C159.106 22.1 158.566 22.24 158.086 22.52C157.619 22.8 157.246 23.1933 156.966 23.7C156.699 24.1933 156.566 24.76 156.566 25.4ZM168.164 34.4H166.564V20.8H168.164V34.4ZM175.864 25.4C175.864 26.3867 175.657 27.24 175.244 27.96C174.831 28.68 174.277 29.2333 173.584 29.62C172.904 30.0067 172.144 30.2 171.304 30.2C170.544 30.2 169.871 30.0067 169.284 29.62C168.711 29.2333 168.257 28.68 167.924 27.96C167.604 27.24 167.444 26.3867 167.444 25.4C167.444 24.4 167.604 23.5467 167.924 22.84C168.257 22.12 168.711 21.5667 169.284 21.18C169.871 20.7933 170.544 20.6 171.304 20.6C172.144 20.6 172.904 20.7933 173.584 21.18C174.277 21.5667 174.831 22.12 175.244 22.84C175.657 23.5467 175.864 24.4 175.864 25.4ZM174.244 25.4C174.244 24.6933 174.097 24.0933 173.804 23.6C173.524 23.1067 173.144 22.7333 172.664 22.48C172.197 22.2267 171.677 22.1 171.104 22.1C170.637 22.1 170.177 22.2267 169.724 22.48C169.271 22.7333 168.897 23.1067 168.604 23.6C168.311 24.0933 168.164 24.6933 168.164 25.4C168.164 26.1067 168.311 26.7067 168.604 27.2C168.897 27.6933 169.271 28.0667 169.724 28.32C170.177 28.5733 170.637 28.7 171.104 28.7C171.677 28.7 172.197 28.5733 172.664 28.32C173.144 28.0667 173.524 27.6933 173.804 27.2C174.097 26.7067 174.244 26.1067 174.244 25.4ZM181.33 25.4V24.4C181.944 24.4 182.384 24.2867 182.65 24.06C182.917 23.82 183.05 23.5333 183.05 23.2C183.05 22.84 182.917 22.56 182.65 22.36C182.384 22.1467 182.01 22.04 181.53 22.04C181.13 22.04 180.797 22.12 180.53 22.28C180.277 22.4267 180.09 22.6133 179.97 22.84C179.85 23.0533 179.79 23.2667 179.79 23.48H178.17C178.17 22.96 178.317 22.48 178.61 22.04C178.904 21.6 179.304 21.2533 179.81 21C180.317 20.7333 180.89 20.6 181.53 20.6C182.13 20.6 182.67 20.7133 183.15 20.94C183.63 21.1667 184.004 21.4667 184.27 21.84C184.55 22.2133 184.69 22.6267 184.69 23.08C184.69 23.7467 184.39 24.3 183.79 24.74C183.204 25.18 182.384 25.4 181.33 25.4ZM181.49 30.2C180.41 30.2 179.544 29.9067 178.89 29.32C178.25 28.7333 177.877 27.9933 177.77 27.1H179.39C179.484 27.54 179.684 27.9333 179.99 28.28C180.297 28.6267 180.797 28.8 181.49 28.8C181.917 28.8 182.277 28.74 182.57 28.62C182.877 28.5 183.11 28.3267 183.27 28.1C183.43 27.8733 183.51 27.6133 183.51 27.32C183.51 27 183.424 26.7267 183.25 26.5C183.09 26.2733 182.844 26.1 182.51 25.98C182.19 25.86 181.797 25.8 181.33 25.8V24.8C182.477 24.8 183.39 25 184.07 25.4C184.75 25.8 185.09 26.4333 185.09 27.3C185.09 27.9 184.924 28.42 184.59 28.86C184.27 29.2867 183.837 29.62 183.29 29.86C182.744 30.0867 182.144 30.2 181.49 30.2ZM195.184 22.4L187.584 30.7L187.684 28.4L195.284 20.1L195.184 22.4ZM189.184 20.8V28.5L187.584 30.7V20.8H189.184ZM195.284 20.1V30H193.684V22.3L195.284 20.1ZM199.323 25.9V24.4H206.123V25.9H199.323ZM205.083 20.8H206.683V30H205.083V20.8ZM198.383 20.8H199.983V30H198.383V20.8ZM216.991 20.8L210.991 34.4H209.191L211.711 28.7L208.191 20.8H210.091L213.011 28L212.351 27.92L215.191 20.8H216.991Z" fill="#BB8C5F"/>
</svg>
