<svg width="28" height="28" viewBox="0 0 28 28" fill="none" xmlns="http://www.w3.org/2000/svg">
<path fill-rule="evenodd" clip-rule="evenodd" d="M22.2617 14.626V14.6229C22.7612 14.1003 23.1541 13.4847 23.4178 12.8107C23.6968 12.0976 23.8252 11.3346 23.795 10.5695C23.7647 9.80439 23.5765 9.05382 23.2422 8.36499C22.9078 7.67616 22.4346 7.06397 21.8521 6.56691C21.2697 6.06986 20.5907 5.69869 19.8579 5.47676C19.1251 5.25483 18.3543 5.18694 17.5939 5.27735C16.8336 5.36777 16.1002 5.61453 15.4399 6.00212C14.8931 6.32303 14.4063 6.73474 13.9997 7.21867C13.5932 6.73474 13.1063 6.32303 12.5596 6.00212C11.8993 5.61453 11.1659 5.36777 10.4055 5.27735C9.64521 5.18694 8.87439 5.25483 8.14157 5.47676C7.40874 5.69869 6.72977 6.06986 6.14735 6.56691C5.56493 7.06397 5.09166 7.67616 4.7573 8.36499C4.42294 9.05382 4.23474 9.80439 4.20452 10.5695C4.1743 11.3346 4.30272 12.0976 4.5817 12.8107C4.86069 13.5238 5.28422 14.1714 5.82562 14.7128L13.9997 22.8859L22.2617 14.626Z" fill="#BB8C5F"/>
</svg>
