<svg width="305" height="70" viewBox="0 0 305 70" fill="none" xmlns="http://www.w3.org/2000/svg">
<path d="M16 43.1758L15.5039 42.8857L1.98535 35L15.5039 27.1143L16 26.8242V1H289V26.8242L289.496 27.1143L303.014 35L289.496 42.8857L289 43.1758V69H16V43.1758Z" fill="#524336" stroke="#BB8C5F" stroke-width="2"/>
<path d="M59.4244 33.6H61.6844C62.5244 33.6 63.251 33.48 63.8644 33.24C64.491 33 64.9777 32.6467 65.3244 32.18C65.671 31.7133 65.8444 31.1533 65.8444 30.5C65.8444 29.7 65.671 29.0467 65.3244 28.54C64.9777 28.02 64.491 27.6333 63.8644 27.38C63.251 27.1267 62.5244 27 61.6844 27H58.0844V41H61.8844C62.791 41 63.5977 40.8533 64.3044 40.56C65.0244 40.2533 65.591 39.8 66.0044 39.2C66.431 38.5867 66.6444 37.82 66.6444 36.9C66.6444 36.26 66.5244 35.7067 66.2844 35.24C66.0444 34.7733 65.7044 34.3933 65.2644 34.1C64.8377 33.7933 64.3377 33.5667 63.7644 33.42C63.191 33.2733 62.5644 33.2 61.8844 33.2H59.4244V34.14H61.8844C62.3377 34.14 62.751 34.2 63.1244 34.32C63.4977 34.4267 63.8177 34.5933 64.0844 34.82C64.3644 35.0467 64.5777 35.3267 64.7244 35.66C64.871 35.9933 64.9444 36.3733 64.9444 36.8C64.9444 37.3733 64.811 37.86 64.5444 38.26C64.291 38.66 63.931 38.9667 63.4644 39.18C63.011 39.3933 62.4844 39.5 61.8844 39.5H59.7844V28.5H61.6844C62.391 28.5 62.9777 28.6867 63.4444 29.06C63.911 29.42 64.1444 29.9333 64.1444 30.6C64.1444 31.04 64.0377 31.4133 63.8244 31.72C63.611 32.0267 63.3177 32.26 62.9444 32.42C62.571 32.58 62.151 32.66 61.6844 32.66H59.4244V33.6ZM69.3567 36.8H77.2167C77.2301 36.72 77.2367 36.64 77.2367 36.56C77.2367 36.48 77.2367 36.4 77.2367 36.32C77.2367 35.3467 77.0567 34.5133 76.6967 33.82C76.3367 33.1133 75.8301 32.5667 75.1767 32.18C74.5234 31.7933 73.7634 31.6 72.8967 31.6C72.1101 31.6 71.3967 31.76 70.7567 32.08C70.1301 32.4 69.6167 32.8467 69.2167 33.42C68.8167 33.9933 68.5501 34.66 68.4167 35.42C68.3901 35.58 68.3701 35.74 68.3567 35.9C68.3434 36.06 68.3367 36.2267 68.3367 36.4C68.3367 37.32 68.5234 38.1467 68.8967 38.88C69.2834 39.6 69.8034 40.1667 70.4567 40.58C71.1234 40.9933 71.8701 41.2 72.6967 41.2C73.4967 41.2 74.1634 41.1067 74.6967 40.92C75.2301 40.72 75.6834 40.4467 76.0567 40.1C76.4301 39.74 76.7701 39.3267 77.0767 38.86L75.7767 38.04C75.5767 38.3733 75.3367 38.6667 75.0567 38.92C74.7767 39.16 74.4567 39.3533 74.0967 39.5C73.7501 39.6333 73.3501 39.7 72.8967 39.7C72.2967 39.7 71.7767 39.5733 71.3367 39.32C70.8967 39.0667 70.5567 38.6933 70.3167 38.2C70.0767 37.7067 69.9567 37.1067 69.9567 36.4L69.9967 35.8C69.9967 35.2267 70.1234 34.7333 70.3767 34.32C70.6434 33.8933 70.9967 33.5667 71.4367 33.34C71.8767 33.1133 72.3634 33 72.8967 33C73.4301 33 73.8767 33.1067 74.2367 33.32C74.6101 33.52 74.8967 33.8067 75.0967 34.18C75.3101 34.54 75.4434 34.96 75.4967 35.44H69.3567V36.8ZM80.9297 45.4V31.8H79.3297V45.4H80.9297ZM88.6297 36.4C88.6297 35.4 88.423 34.5467 88.0097 33.84C87.5964 33.12 87.043 32.5667 86.3497 32.18C85.6697 31.7933 84.9097 31.6 84.0697 31.6C83.3097 31.6 82.6364 31.7933 82.0497 32.18C81.4764 32.5667 81.023 33.12 80.6897 33.84C80.3697 34.5467 80.2097 35.4 80.2097 36.4C80.2097 37.3867 80.3697 38.24 80.6897 38.96C81.023 39.68 81.4764 40.2333 82.0497 40.62C82.6364 41.0067 83.3097 41.2 84.0697 41.2C84.9097 41.2 85.6697 41.0067 86.3497 40.62C87.043 40.2333 87.5964 39.68 88.0097 38.96C88.423 38.24 88.6297 37.3867 88.6297 36.4ZM87.0097 36.4C87.0097 37.1067 86.863 37.7067 86.5697 38.2C86.2897 38.6933 85.9097 39.0667 85.4297 39.32C84.963 39.5733 84.443 39.7 83.8697 39.7C83.403 39.7 82.943 39.5733 82.4897 39.32C82.0364 39.0667 81.663 38.6933 81.3697 38.2C81.0764 37.7067 80.9297 37.1067 80.9297 36.4C80.9297 35.6933 81.0764 35.0933 81.3697 34.6C81.663 34.1067 82.0364 33.7333 82.4897 33.48C82.943 33.2267 83.403 33.1 83.8697 33.1C84.443 33.1 84.963 33.2267 85.4297 33.48C85.9097 33.7333 86.2897 34.1067 86.5697 34.6C86.863 35.0933 87.0097 35.6933 87.0097 36.4ZM91.7759 36.9H98.5759V35.4H91.7759V36.9ZM97.5359 31.8V41H99.1359V31.8H97.5359ZM90.8359 31.8V41H92.4359V31.8H90.8359ZM109.445 31.8H107.645L104.805 38.92L105.465 39L102.545 31.8H100.645L104.165 39.7L101.645 45.4H103.445L109.445 31.8ZM109.553 31.8V33.3H114.953V31.8H109.553ZM111.453 32.2V41H113.053V32.2H111.453ZM116.559 31.8V41H118.159V31.8H116.559ZM117.499 36.68H120.359C120.945 36.68 121.385 36.8067 121.679 37.06C121.972 37.3133 122.119 37.6733 122.119 38.14C122.119 38.4467 122.052 38.7133 121.919 38.94C121.785 39.1533 121.585 39.32 121.319 39.44C121.065 39.5467 120.745 39.6 120.359 39.6H117.499V41H120.359C120.999 41 121.572 40.9 122.079 40.7C122.585 40.5 122.985 40.1867 123.279 39.76C123.572 39.3333 123.719 38.7933 123.719 38.14C123.719 37.1533 123.392 36.4333 122.739 35.98C122.099 35.5133 121.305 35.28 120.359 35.28H117.499V36.68ZM126.947 36.4C126.947 35.76 127.08 35.1933 127.347 34.7C127.627 34.1933 128 33.8 128.467 33.52C128.947 33.24 129.487 33.1 130.087 33.1C130.58 33.1 131.04 33.18 131.467 33.34C131.907 33.4867 132.287 33.6867 132.607 33.94C132.927 34.1933 133.153 34.4733 133.287 34.78V32.78C132.967 32.4067 132.507 32.12 131.907 31.92C131.32 31.7067 130.713 31.6 130.087 31.6C129.193 31.6 128.387 31.8067 127.667 32.22C126.947 32.6333 126.373 33.2 125.947 33.92C125.533 34.64 125.327 35.4667 125.327 36.4C125.327 37.32 125.533 38.1467 125.947 38.88C126.373 39.6 126.947 40.1667 127.667 40.58C128.387 40.9933 129.193 41.2 130.087 41.2C130.713 41.2 131.32 41.1 131.907 40.9C132.507 40.6867 132.967 40.3933 133.287 40.02V38.02C133.153 38.3133 132.927 38.5933 132.607 38.86C132.287 39.1133 131.907 39.32 131.467 39.48C131.04 39.6267 130.58 39.7 130.087 39.7C129.487 39.7 128.947 39.56 128.467 39.28C128 38.9867 127.627 38.5933 127.347 38.1C127.08 37.6067 126.947 37.04 126.947 36.4ZM137.097 41L140.497 36.2H138.737L135.337 41H137.097ZM142.937 41V31.8H141.337V41H142.937ZM141.997 35.92H139.137C138.751 35.92 138.424 35.8733 138.157 35.78C137.904 35.6733 137.711 35.52 137.577 35.32C137.444 35.12 137.377 34.8667 137.377 34.56C137.377 34.2533 137.444 34 137.577 33.8C137.711 33.6 137.904 33.4533 138.157 33.36C138.424 33.2533 138.751 33.2 139.137 33.2H141.997V31.8H139.137C138.511 31.8 137.937 31.8933 137.417 32.08C136.911 32.2667 136.511 32.56 136.217 32.96C135.924 33.36 135.777 33.8933 135.777 34.56C135.777 35.2133 135.924 35.7467 136.217 36.16C136.511 36.56 136.911 36.8533 137.417 37.04C137.937 37.2267 138.511 37.32 139.137 37.32H141.997V35.92ZM152.381 36.9H159.181V35.4H152.381V36.9ZM158.141 31.8V41H159.741V31.8H158.141ZM151.441 31.8V41H153.041V31.8H151.441ZM163.47 38.3C163.47 37.9267 163.557 37.6067 163.73 37.34C163.903 37.0733 164.163 36.8667 164.51 36.72C164.87 36.5733 165.317 36.5 165.85 36.5C166.437 36.5 166.963 36.58 167.43 36.74C167.897 36.8867 168.357 37.12 168.81 37.44V36.5C168.717 36.38 168.543 36.2267 168.29 36.04C168.037 35.84 167.697 35.6667 167.27 35.52C166.857 35.36 166.357 35.28 165.77 35.28C164.97 35.28 164.277 35.4067 163.69 35.66C163.103 35.9 162.65 36.2467 162.33 36.7C162.01 37.1533 161.85 37.7067 161.85 38.36C161.85 38.9867 161.99 39.5133 162.27 39.94C162.563 40.3533 162.95 40.6667 163.43 40.88C163.91 41.0933 164.437 41.2 165.01 41.2C165.65 41.2 166.23 41.0933 166.75 40.88C167.27 40.6533 167.683 40.3333 167.99 39.92C168.31 39.4933 168.47 38.9867 168.47 38.4L168.15 37.4C168.15 37.9733 168.03 38.4333 167.79 38.78C167.563 39.1267 167.243 39.38 166.83 39.54C166.417 39.7 165.943 39.78 165.41 39.78C165.05 39.78 164.723 39.7267 164.43 39.62C164.137 39.5 163.903 39.3333 163.73 39.12C163.557 38.8933 163.47 38.62 163.47 38.3ZM163.47 33.96C163.617 33.8533 163.817 33.7267 164.07 33.58C164.337 33.42 164.65 33.2867 165.01 33.18C165.37 33.06 165.77 33 166.21 33C166.717 33 167.163 33.12 167.55 33.36C167.95 33.5867 168.15 33.9333 168.15 34.4V41H169.75V34.4C169.75 33.8 169.597 33.2933 169.29 32.88C168.997 32.4667 168.583 32.1533 168.05 31.94C167.53 31.7133 166.917 31.6 166.21 31.6C165.383 31.6 164.677 31.7267 164.09 31.98C163.503 32.2333 163.037 32.4867 162.69 32.74L163.47 33.96ZM178.553 31.8V41H180.153V33.3H183.453V31.8H178.553ZM193.115 31.8H185.215V37.8C185.215 38.4533 185.068 38.9067 184.775 39.16C184.495 39.4133 184.155 39.54 183.755 39.54V41C184.448 41 185.021 40.8867 185.475 40.66C185.928 40.42 186.261 40.0667 186.475 39.6C186.701 39.12 186.815 38.52 186.815 37.8V33.3H191.515V41H193.115V31.8ZM196.927 38.3C196.927 37.9267 197.014 37.6067 197.187 37.34C197.36 37.0733 197.62 36.8667 197.967 36.72C198.327 36.5733 198.774 36.5 199.307 36.5C199.894 36.5 200.42 36.58 200.887 36.74C201.354 36.8867 201.814 37.12 202.267 37.44V36.5C202.174 36.38 202 36.2267 201.747 36.04C201.494 35.84 201.154 35.6667 200.727 35.52C200.314 35.36 199.814 35.28 199.227 35.28C198.427 35.28 197.734 35.4067 197.147 35.66C196.56 35.9 196.107 36.2467 195.787 36.7C195.467 37.1533 195.307 37.7067 195.307 38.36C195.307 38.9867 195.447 39.5133 195.727 39.94C196.02 40.3533 196.407 40.6667 196.887 40.88C197.367 41.0933 197.894 41.2 198.467 41.2C199.107 41.2 199.687 41.0933 200.207 40.88C200.727 40.6533 201.14 40.3333 201.447 39.92C201.767 39.4933 201.927 38.9867 201.927 38.4L201.607 37.4C201.607 37.9733 201.487 38.4333 201.247 38.78C201.02 39.1267 200.7 39.38 200.287 39.54C199.874 39.7 199.4 39.78 198.867 39.78C198.507 39.78 198.18 39.7267 197.887 39.62C197.594 39.5 197.36 39.3333 197.187 39.12C197.014 38.8933 196.927 38.62 196.927 38.3ZM196.927 33.96C197.074 33.8533 197.274 33.7267 197.527 33.58C197.794 33.42 198.107 33.2867 198.467 33.18C198.827 33.06 199.227 33 199.667 33C200.174 33 200.62 33.12 201.007 33.36C201.407 33.5867 201.607 33.9333 201.607 34.4V41H203.207V34.4C203.207 33.8 203.054 33.2933 202.747 32.88C202.454 32.4667 202.04 32.1533 201.507 31.94C200.987 31.7133 200.374 31.6 199.667 31.6C198.84 31.6 198.134 31.7267 197.547 31.98C196.96 32.2333 196.494 32.4867 196.147 32.74L196.927 33.96ZM206.854 36.2V37.04H209.514C209.821 37.04 210.081 37.0733 210.294 37.14C210.521 37.1933 210.701 37.28 210.834 37.4C210.981 37.52 211.087 37.6533 211.154 37.8C211.234 37.9467 211.274 38.1133 211.274 38.3C211.274 38.66 211.127 38.9667 210.834 39.22C210.554 39.4733 210.114 39.6 209.514 39.6H206.854V41H209.914C210.967 41 211.721 40.76 212.174 40.28C212.641 39.7867 212.874 39.1933 212.874 38.5C212.874 37.9 212.727 37.4333 212.434 37.1C212.141 36.7667 211.741 36.5333 211.234 36.4C210.727 36.2667 210.154 36.2 209.514 36.2H206.854ZM206.854 36.6H209.314C209.887 36.6 210.407 36.52 210.874 36.36C211.354 36.1867 211.741 35.9333 212.034 35.6C212.327 35.2533 212.474 34.82 212.474 34.3C212.474 33.7 212.327 33.22 212.034 32.86C211.741 32.4867 211.354 32.22 210.874 32.06C210.407 31.8867 209.887 31.8 209.314 31.8H206.854V33.2H209.314C209.794 33.2 210.174 33.3133 210.454 33.54C210.734 33.7533 210.874 34.04 210.874 34.4C210.874 34.5733 210.834 34.74 210.754 34.9C210.687 35.0467 210.587 35.18 210.454 35.3C210.321 35.42 210.154 35.5133 209.954 35.58C209.767 35.6333 209.554 35.66 209.314 35.66H206.854V36.6ZM205.914 31.8V41H207.514V31.8H205.914ZM215.917 36.9H222.717V35.4H215.917V36.9ZM221.677 31.8V41H223.277V31.8H221.677ZM214.977 31.8V41H216.577V31.8H214.977ZM233.585 31.8H231.785L228.945 38.92L229.605 39L226.685 31.8H224.785L228.305 39.7L225.785 45.4H227.585L233.585 31.8ZM236.034 36.9H239.434V35.4H236.034V36.9ZM235.094 31.8V41H236.694V31.8H235.094ZM238.294 36.4C238.294 37.32 238.5 38.1467 238.914 38.88C239.34 39.6 239.914 40.1667 240.634 40.58C241.354 40.9933 242.16 41.2 243.054 41.2C243.96 41.2 244.767 40.9933 245.474 40.58C246.194 40.1667 246.76 39.6 247.174 38.88C247.6 38.1467 247.814 37.32 247.814 36.4C247.814 35.4667 247.6 34.64 247.174 33.92C246.76 33.2 246.194 32.6333 245.474 32.22C244.767 31.8067 243.96 31.6 243.054 31.6C242.16 31.6 241.354 31.8067 240.634 32.22C239.914 32.6333 239.34 33.2 238.914 33.92C238.5 34.64 238.294 35.4667 238.294 36.4ZM239.914 36.4C239.914 35.76 240.047 35.1933 240.314 34.7C240.594 34.1933 240.967 33.8 241.434 33.52C241.914 33.24 242.454 33.1 243.054 33.1C243.654 33.1 244.187 33.24 244.654 33.52C245.134 33.8 245.507 34.1933 245.774 34.7C246.054 35.1933 246.194 35.76 246.194 36.4C246.194 37.04 246.054 37.6067 245.774 38.1C245.507 38.5933 245.134 38.9867 244.654 39.28C244.187 39.56 243.654 39.7 243.054 39.7C242.454 39.7 241.914 39.56 241.434 39.28C240.967 38.9867 240.594 38.5933 240.314 38.1C240.047 37.6067 239.914 37.04 239.914 36.4Z" fill="#FAF6F2"/>
</svg>
