<svg width="145" height="67" viewBox="0 0 145 67" fill="none" xmlns="http://www.w3.org/2000/svg">
<path d="M0.72 46.992V43.2H14.424L6.312 60H1.92L8.472 46.992H0.72ZM36.1763 54.624C36.1763 55.616 35.9763 56.472 35.5763 57.192C35.1923 57.912 34.6723 58.504 34.0163 58.968C33.3603 59.416 32.6323 59.752 31.8323 59.976C31.0323 60.2 30.2243 60.312 29.4083 60.312C27.8563 60.312 26.5363 60.096 25.4483 59.664C24.3763 59.232 23.4483 58.72 22.6643 58.128L24.2483 54.792C24.9203 55.368 25.6403 55.816 26.4083 56.136C27.1763 56.44 27.8723 56.592 28.4963 56.592C29.5043 56.592 30.2963 56.4 30.8723 56.016C31.4483 55.616 31.7363 55.008 31.7363 54.192C31.7363 53.648 31.5763 53.208 31.2563 52.872C30.9523 52.52 30.5523 52.264 30.0563 52.104C29.5603 51.928 29.0403 51.84 28.4963 51.84C27.8563 51.84 27.1203 51.912 26.2883 52.056C25.4563 52.184 24.6163 52.464 23.7683 52.896L26.1203 43.2H35.8403V46.728H29.0963L28.1363 49.704C28.5843 49.48 29.0483 49.328 29.5283 49.248C30.0243 49.168 30.5363 49.128 31.0643 49.128C31.9603 49.128 32.7923 49.344 33.5603 49.776C34.3443 50.208 34.9763 50.832 35.4563 51.648C35.9363 52.464 36.1763 53.456 36.1763 54.624ZM38.085 51.6C38.085 49.776 38.373 48.216 38.949 46.92C39.541 45.608 40.357 44.608 41.397 43.92C42.453 43.232 43.677 42.888 45.069 42.888C46.509 42.888 47.749 43.232 48.789 43.92C49.829 44.608 50.629 45.608 51.189 46.92C51.765 48.216 52.053 49.776 52.053 51.6C52.053 53.424 51.765 54.984 51.189 56.28C50.629 57.576 49.829 58.576 48.789 59.28C47.749 59.968 46.509 60.312 45.069 60.312C43.677 60.312 42.453 59.968 41.397 59.28C40.357 58.576 39.541 57.576 38.949 56.28C38.373 54.984 38.085 53.424 38.085 51.6ZM41.997 51.6C41.997 53.184 42.277 54.456 42.837 55.416C43.397 56.36 44.141 56.832 45.069 56.832C45.997 56.832 46.741 56.36 47.301 55.416C47.861 54.456 48.141 53.184 48.141 51.6C48.141 50.016 47.861 48.752 47.301 47.808C46.741 46.848 45.997 46.368 45.069 46.368C44.141 46.368 43.397 46.848 42.837 47.808C42.277 48.752 41.997 50.016 41.997 51.6ZM53.9756 51.6C53.9756 49.776 54.2636 48.216 54.8396 46.92C55.4316 45.608 56.2476 44.608 57.2876 43.92C58.3436 43.232 59.5676 42.888 60.9596 42.888C62.3996 42.888 63.6396 43.232 64.6796 43.92C65.7196 44.608 66.5196 45.608 67.0796 46.92C67.6556 48.216 67.9436 49.776 67.9436 51.6C67.9436 53.424 67.6556 54.984 67.0796 56.28C66.5196 57.576 65.7196 58.576 64.6796 59.28C63.6396 59.968 62.3996 60.312 60.9596 60.312C59.5676 60.312 58.3436 59.968 57.2876 59.28C56.2476 58.576 55.4316 57.576 54.8396 56.28C54.2636 54.984 53.9756 53.424 53.9756 51.6ZM57.8876 51.6C57.8876 53.184 58.1676 54.456 58.7276 55.416C59.2876 56.36 60.0316 56.832 60.9596 56.832C61.8876 56.832 62.6316 56.36 63.1916 55.416C63.7516 54.456 64.0316 53.184 64.0316 51.6C64.0316 50.016 63.7516 48.752 63.1916 47.808C62.6316 46.848 61.8876 46.368 60.9596 46.368C60.0316 46.368 59.2876 46.848 58.7276 47.808C58.1676 48.752 57.8876 50.016 57.8876 51.6ZM78.2616 60V57.432H76.3416V55.104H78.2616V53.232H76.3416V50.256H78.2616V42.864H83.7336C85.9416 42.864 87.5496 43.312 88.5576 44.208C89.5816 45.104 90.0936 46.336 90.0936 47.904C90.0936 48.832 89.8856 49.704 89.4696 50.52C89.0536 51.336 88.3576 51.992 87.3816 52.488C86.4216 52.984 85.1096 53.232 83.4456 53.232H81.8856V55.104H85.5816V57.432H81.8856V60H78.2616ZM83.0856 50.256C84.1096 50.256 84.9176 50.08 85.5096 49.728C86.1176 49.376 86.4216 48.808 86.4216 48.024C86.4216 46.568 85.4616 45.84 83.5416 45.84H81.8856V50.256H83.0856Z" fill="#BB8C5F"/>
<path d="M106.935 54.27C106.935 53.488 107.133 52.8363 107.53 52.315C107.938 51.7823 108.442 51.397 109.043 51.159C108.522 50.9323 108.108 50.5923 107.802 50.139C107.507 49.6743 107.36 49.119 107.36 48.473C107.36 47.9063 107.502 47.3963 107.785 46.943C108.08 46.4783 108.471 46.11 108.958 45.838C109.457 45.566 110.018 45.43 110.641 45.43C111.264 45.43 111.82 45.566 112.307 45.838C112.806 46.11 113.197 46.4783 113.48 46.943C113.775 47.3963 113.922 47.9063 113.922 48.473C113.922 49.119 113.769 49.6743 113.463 50.139C113.168 50.5923 112.76 50.9323 112.239 51.159C112.84 51.397 113.338 51.7823 113.735 52.315C114.143 52.8363 114.347 53.488 114.347 54.27C114.347 54.882 114.183 55.4487 113.854 55.97C113.537 56.48 113.1 56.8937 112.545 57.211C111.99 57.517 111.355 57.67 110.641 57.67C109.938 57.67 109.304 57.517 108.737 57.211C108.182 56.8937 107.74 56.48 107.411 55.97C107.094 55.4487 106.935 54.882 106.935 54.27ZM108.737 48.643C108.737 49.1983 108.924 49.6517 109.298 50.003C109.683 50.3543 110.131 50.53 110.641 50.53C111.151 50.53 111.593 50.3543 111.967 50.003C112.352 49.6517 112.545 49.1983 112.545 48.643C112.545 48.0763 112.364 47.6117 112.001 47.249C111.65 46.8863 111.196 46.705 110.641 46.705C110.086 46.705 109.627 46.8863 109.264 47.249C108.913 47.6117 108.737 48.0763 108.737 48.643ZM108.312 54.1C108.312 54.5873 108.42 55.001 108.635 55.341C108.862 55.681 109.151 55.9417 109.502 56.123C109.865 56.3043 110.244 56.395 110.641 56.395C111.038 56.395 111.412 56.3043 111.763 56.123C112.126 55.9417 112.415 55.681 112.63 55.341C112.857 55.001 112.97 54.5873 112.97 54.1C112.97 53.6693 112.857 53.284 112.63 52.944C112.415 52.5927 112.126 52.315 111.763 52.111C111.412 51.907 111.038 51.805 110.641 51.805C110.244 51.805 109.865 51.907 109.502 52.111C109.151 52.315 108.862 52.5927 108.635 52.944C108.42 53.284 108.312 53.6693 108.312 54.1ZM115.96 51.55C115.96 50.36 116.147 49.306 116.521 48.388C116.895 47.47 117.411 46.7503 118.068 46.229C118.737 45.6963 119.508 45.43 120.38 45.43C121.253 45.43 122.018 45.6963 122.675 46.229C123.344 46.7503 123.865 47.47 124.239 48.388C124.613 49.306 124.8 50.36 124.8 51.55C124.8 52.74 124.613 53.794 124.239 54.712C123.865 55.63 123.344 56.3553 122.675 56.888C122.018 57.4093 121.253 57.67 120.38 57.67C119.508 57.67 118.737 57.4093 118.068 56.888C117.411 56.3553 116.895 55.63 116.521 54.712C116.147 53.794 115.96 52.74 115.96 51.55ZM117.405 51.55C117.405 52.468 117.524 53.2897 117.762 54.015C118.012 54.729 118.357 55.29 118.799 55.698C119.241 56.106 119.768 56.31 120.38 56.31C120.992 56.31 121.519 56.106 121.961 55.698C122.415 55.29 122.76 54.729 122.998 54.015C123.236 53.2897 123.355 52.468 123.355 51.55C123.355 50.6207 123.236 49.799 122.998 49.085C122.76 48.371 122.415 47.81 121.961 47.402C121.519 46.994 120.992 46.79 120.38 46.79C119.768 46.79 119.241 46.994 118.799 47.402C118.357 47.81 118.012 48.371 117.762 49.085C117.524 49.799 117.405 50.6207 117.405 51.55ZM134.382 53.59C134.382 54.4853 134.195 55.239 133.821 55.851C133.447 56.4517 132.942 56.905 132.308 57.211C131.684 57.517 130.987 57.67 130.217 57.67C129.491 57.67 128.857 57.5567 128.313 57.33C127.78 57.1033 127.321 56.803 126.936 56.429C126.562 56.0437 126.244 55.6243 125.984 55.171L127.208 54.338C127.389 54.678 127.627 55.001 127.922 55.307C128.228 55.6017 128.579 55.8453 128.976 56.038C129.372 56.2193 129.786 56.31 130.217 56.31C131.067 56.31 131.724 56.0607 132.189 55.562C132.653 55.0633 132.886 54.406 132.886 53.59C132.886 53.046 132.767 52.57 132.529 52.162C132.302 51.754 131.985 51.4367 131.577 51.21C131.18 50.9833 130.727 50.87 130.217 50.87C129.843 50.87 129.497 50.904 129.18 50.972C128.874 51.0287 128.562 51.1363 128.245 51.295C127.939 51.4423 127.582 51.6577 127.174 51.941L128.738 45.6H134.348V46.875H129.86L129.061 50.02C129.627 49.7253 130.217 49.578 130.829 49.578C131.509 49.578 132.115 49.748 132.648 50.088C133.192 50.428 133.617 50.8983 133.923 51.499C134.229 52.0997 134.382 52.7967 134.382 53.59ZM135.579 46.96V45.6H143.909L138.214 57.5H136.701L141.75 46.96H135.579Z" fill="#636B78"/>
<path d="M106 52.808H143.994V53.658H106V52.808Z" fill="#636B78"/>
<path d="M4.811 19.17C4.05167 19.17 3.383 19.0227 2.805 18.728C2.23833 18.4333 1.79633 18.0367 1.479 17.538C1.173 17.028 1.02 16.467 1.02 15.855H2.482C2.482 16.4103 2.69733 16.875 3.128 17.249C3.57 17.623 4.131 17.81 4.811 17.81C5.491 17.81 6.02933 17.6173 6.426 17.232C6.834 16.8467 7.038 16.331 7.038 15.685C7.038 14.9483 6.77167 14.3987 6.239 14.036C5.71767 13.662 5.07167 13.475 4.301 13.475V12.2C5.07167 12.2 5.661 11.996 6.069 11.588C6.48833 11.18 6.698 10.6983 6.698 10.143C6.698 9.57633 6.545 9.11733 6.239 8.766C5.94433 8.41467 5.49667 8.239 4.896 8.239C4.34067 8.239 3.87033 8.41467 3.485 8.766C3.09967 9.106 2.907 9.53667 2.907 10.058H1.53C1.53 9.43467 1.67167 8.89067 1.955 8.426C2.24967 7.96133 2.64633 7.59867 3.145 7.338C3.655 7.066 4.233 6.93 4.879 6.93C5.559 6.93 6.14267 7.07733 6.63 7.372C7.12867 7.66667 7.50833 8.052 7.769 8.528C8.041 9.004 8.177 9.52533 8.177 10.092C8.177 10.6813 7.99567 11.214 7.633 11.69C7.27033 12.166 6.77733 12.5343 6.154 12.795C6.85667 12.999 7.42333 13.3503 7.854 13.849C8.296 14.3477 8.517 15.0163 8.517 15.855C8.517 16.5237 8.35267 17.1073 8.024 17.606C7.70667 18.1047 7.27033 18.49 6.715 18.762C6.15967 19.034 5.525 19.17 4.811 19.17ZM14.462 11.18H19.052V12.455H17.437V19H16.077V12.455H14.462V11.18ZM19.4876 15.09C19.4876 14.2967 19.6632 13.594 20.0146 12.982C20.3772 12.37 20.8646 11.8883 21.4766 11.537C22.0886 11.1857 22.7742 11.01 23.5336 11.01C24.3042 11.01 24.9899 11.1857 25.5906 11.537C26.2026 11.8883 26.6842 12.37 27.0356 12.982C27.3982 13.594 27.5796 14.2967 27.5796 15.09C27.5796 15.872 27.3982 16.5747 27.0356 17.198C26.6842 17.81 26.2026 18.2917 25.5906 18.643C24.9899 18.9943 24.3042 19.17 23.5336 19.17C22.7742 19.17 22.0886 18.9943 21.4766 18.643C20.8646 18.2917 20.3772 17.81 20.0146 17.198C19.6632 16.5747 19.4876 15.872 19.4876 15.09ZM20.8646 15.09C20.8646 15.634 20.9779 16.1157 21.2046 16.535C21.4426 16.9543 21.7599 17.2887 22.1566 17.538C22.5646 17.776 23.0236 17.895 23.5336 17.895C24.0436 17.895 24.4969 17.776 24.8936 17.538C25.3016 17.2887 25.6189 16.9543 25.8456 16.535C26.0836 16.1157 26.2026 15.634 26.2026 15.09C26.2026 14.546 26.0836 14.0643 25.8456 13.645C25.6189 13.2143 25.3016 12.88 24.8936 12.642C24.4969 12.404 24.0436 12.285 23.5336 12.285C23.0236 12.285 22.5646 12.404 22.1566 12.642C21.7599 12.88 21.4426 13.2143 21.2046 13.645C20.9779 14.0643 20.8646 14.546 20.8646 15.09ZM29.4479 11.18H32.3379C32.8252 11.18 33.2672 11.2537 33.6639 11.401C34.0719 11.537 34.4005 11.7637 34.6499 12.081C34.8992 12.387 35.0239 12.795 35.0239 13.305C35.0239 13.747 34.9049 14.1097 34.6669 14.393C34.4289 14.6763 34.1172 14.8917 33.7319 15.039C34.2192 15.141 34.6102 15.3337 34.9049 15.617C35.2109 15.9003 35.3639 16.3197 35.3639 16.875C35.3639 17.4643 35.1655 17.9687 34.7689 18.388C34.3835 18.796 33.7432 19 32.8479 19H29.4479V11.18ZM32.3379 12.37H30.8079V14.461H32.3379C32.7459 14.461 33.0689 14.359 33.3069 14.155C33.5449 13.951 33.6639 13.696 33.6639 13.39C33.6639 13.084 33.5449 12.8403 33.3069 12.659C33.0689 12.4663 32.7459 12.37 32.3379 12.37ZM32.5079 15.634H30.8079V17.81H32.5079C33.0179 17.81 33.3919 17.7023 33.6299 17.487C33.8792 17.2717 34.0039 17.011 34.0039 16.705C34.0039 16.399 33.8792 16.144 33.6299 15.94C33.3919 15.736 33.0179 15.634 32.5079 15.634ZM37.763 13.016L37.1 11.979C37.3946 11.7637 37.7913 11.5483 38.29 11.333C38.7886 11.1177 39.3893 11.01 40.092 11.01C40.9873 11.01 41.7126 11.2197 42.268 11.639C42.8233 12.047 43.101 12.6307 43.101 13.39V19H41.741V17.878C41.503 18.2973 41.146 18.6203 40.67 18.847C40.194 19.0623 39.6613 19.17 39.072 19.17C38.5846 19.17 38.137 19.0793 37.729 18.898C37.321 18.7167 36.9923 18.4503 36.743 18.099C36.505 17.7363 36.386 17.2887 36.386 16.756C36.386 15.9287 36.6806 15.2883 37.27 14.835C37.8706 14.3703 38.6866 14.138 39.718 14.138C40.1713 14.138 40.568 14.1947 40.908 14.308C41.248 14.4213 41.5256 14.5517 41.741 14.699V13.39C41.741 12.9933 41.571 12.6987 41.231 12.506C40.9023 12.302 40.5226 12.2 40.092 12.2C39.5366 12.2 39.055 12.302 38.647 12.506C38.2503 12.71 37.9556 12.88 37.763 13.016ZM37.763 16.705C37.763 17.1243 37.9216 17.4417 38.239 17.657C38.5676 17.861 38.9586 17.963 39.412 17.963C40.092 17.963 40.6473 17.81 41.078 17.504C41.52 17.1867 41.741 16.6653 41.741 15.94V15.634C41.163 15.328 40.5113 15.175 39.786 15.175C39.0946 15.175 38.5846 15.311 38.256 15.583C37.9273 15.855 37.763 16.229 37.763 16.705ZM46.677 22.74H45.317V11.18H46.677V12.523C46.9603 12.0357 47.3286 11.6617 47.782 11.401C48.2466 11.1403 48.768 11.01 49.346 11.01C50.06 11.01 50.706 11.1743 51.284 11.503C51.8733 11.8317 52.3436 12.302 52.695 12.914C53.0463 13.5147 53.222 14.24 53.222 15.09C53.222 15.9287 53.0463 16.654 52.695 17.266C52.3436 17.878 51.8733 18.3483 51.284 18.677C50.706 19.0057 50.06 19.17 49.346 19.17C48.768 19.17 48.2466 19.0397 47.782 18.779C47.3286 18.5183 46.9603 18.1443 46.677 17.657V22.74ZM51.845 15.09C51.845 14.4893 51.7203 13.9793 51.471 13.56C51.233 13.1407 50.91 12.8233 50.502 12.608C50.1053 12.3927 49.6633 12.285 49.176 12.285C48.7793 12.285 48.3883 12.3927 48.003 12.608C47.6176 12.8233 47.3003 13.1407 47.051 13.56C46.8016 13.9793 46.677 14.4893 46.677 15.09C46.677 15.6907 46.8016 16.2007 47.051 16.62C47.3003 17.0393 47.6176 17.3567 48.003 17.572C48.3883 17.7873 48.7793 17.895 49.176 17.895C49.6633 17.895 50.1053 17.7873 50.502 17.572C50.91 17.3567 51.233 17.0393 51.471 16.62C51.7203 16.2007 51.845 15.6907 51.845 15.09ZM55.7093 13.016L55.0463 11.979C55.3409 11.7637 55.7376 11.5483 56.2363 11.333C56.7349 11.1177 57.3356 11.01 58.0383 11.01C58.9336 11.01 59.6589 11.2197 60.2143 11.639C60.7696 12.047 61.0473 12.6307 61.0473 13.39V19H59.6873V17.878C59.4493 18.2973 59.0923 18.6203 58.6163 18.847C58.1403 19.0623 57.6076 19.17 57.0183 19.17C56.5309 19.17 56.0833 19.0793 55.6753 18.898C55.2673 18.7167 54.9386 18.4503 54.6893 18.099C54.4513 17.7363 54.3323 17.2887 54.3323 16.756C54.3323 15.9287 54.6269 15.2883 55.2163 14.835C55.8169 14.3703 56.6329 14.138 57.6643 14.138C58.1176 14.138 58.5143 14.1947 58.8543 14.308C59.1943 14.4213 59.4719 14.5517 59.6873 14.699V13.39C59.6873 12.9933 59.5173 12.6987 59.1773 12.506C58.8486 12.302 58.4689 12.2 58.0383 12.2C57.4829 12.2 57.0013 12.302 56.5933 12.506C56.1966 12.71 55.9019 12.88 55.7093 13.016ZM55.7093 16.705C55.7093 17.1243 55.8679 17.4417 56.1853 17.657C56.5139 17.861 56.9049 17.963 57.3583 17.963C58.0383 17.963 58.5936 17.81 59.0243 17.504C59.4663 17.1867 59.6873 16.6653 59.6873 15.94V15.634C59.1093 15.328 58.4576 15.175 57.7323 15.175C57.0409 15.175 56.5309 15.311 56.2023 15.583C55.8736 15.855 55.7093 16.229 55.7093 16.705ZM68.4449 11.18H69.8049V14.24H74.1399V11.18H75.4999V19H74.1399V15.515H69.8049V19H68.4449V11.18ZM78.6692 13.016L78.0062 11.979C78.3009 11.7637 78.6976 11.5483 79.1962 11.333C79.6949 11.1177 80.2956 11.01 80.9982 11.01C81.8936 11.01 82.6189 11.2197 83.1742 11.639C83.7296 12.047 84.0072 12.6307 84.0072 13.39V19H82.6472V17.878C82.4092 18.2973 82.0522 18.6203 81.5762 18.847C81.1002 19.0623 80.5676 19.17 79.9782 19.17C79.4909 19.17 79.0432 19.0793 78.6352 18.898C78.2272 18.7167 77.8986 18.4503 77.6492 18.099C77.4112 17.7363 77.2922 17.2887 77.2922 16.756C77.2922 15.9287 77.5869 15.2883 78.1762 14.835C78.7769 14.3703 79.5929 14.138 80.6242 14.138C81.0776 14.138 81.4742 14.1947 81.8142 14.308C82.1542 14.4213 82.4319 14.5517 82.6472 14.699V13.39C82.6472 12.9933 82.4772 12.6987 82.1372 12.506C81.8086 12.302 81.4289 12.2 80.9982 12.2C80.4429 12.2 79.9612 12.302 79.5532 12.506C79.1566 12.71 78.8619 12.88 78.6692 13.016ZM78.6692 16.705C78.6692 17.1243 78.8279 17.4417 79.1452 17.657C79.4739 17.861 79.8649 17.963 80.3182 17.963C80.9982 17.963 81.5536 17.81 81.9842 17.504C82.4262 17.1867 82.6472 16.6653 82.6472 15.94V15.634C82.0692 15.328 81.4176 15.175 80.6922 15.175C80.0009 15.175 79.4909 15.311 79.1622 15.583C78.8336 15.855 78.6692 16.229 78.6692 16.705ZM92.0169 15.09C92.0169 15.634 92.1302 16.1157 92.3569 16.535C92.5949 16.9543 92.9122 17.2887 93.3089 17.538C93.7169 17.776 94.1759 17.895 94.6859 17.895C95.3205 17.895 95.8872 17.7533 96.3859 17.47C96.8845 17.1867 97.2246 16.8523 97.4059 16.467V18.167C97.1339 18.4843 96.7429 18.7337 96.2329 18.915C95.7342 19.085 95.2185 19.17 94.6859 19.17C93.9265 19.17 93.2409 18.9943 92.6289 18.643C92.0169 18.2917 91.5295 17.81 91.1669 17.198C90.8155 16.5747 90.6399 15.872 90.6399 15.09C90.6399 14.2967 90.8155 13.594 91.1669 12.982C91.5295 12.37 92.0169 11.8883 92.6289 11.537C93.2409 11.1857 93.9265 11.01 94.6859 11.01C95.2185 11.01 95.7342 11.1007 96.2329 11.282C96.7429 11.452 97.1339 11.6957 97.4059 12.013V13.713C97.2246 13.3277 96.8845 12.9933 96.3859 12.71C95.8872 12.4267 95.3205 12.285 94.6859 12.285C94.1759 12.285 93.7169 12.404 93.3089 12.642C92.9122 12.88 92.5949 13.2143 92.3569 13.645C92.1302 14.0643 92.0169 14.546 92.0169 15.09ZM105.728 11.18L100.628 22.74H99.098L101.24 17.895L98.248 11.18H99.863L102.056 16.569L104.198 11.18H105.728ZM105.82 19L107.86 10.585L110.869 16.79L113.929 10.585L115.969 19H114.439L113.504 14.444L110.869 19.527L108.285 14.461L107.35 19H105.82ZM116.147 19L118.187 10.585L121.196 16.79L124.256 10.585L126.296 19H124.766L123.831 14.444L121.196 19.527L118.612 14.461L117.677 19H116.147ZM133.785 11.18L128.685 22.74H127.155L129.297 17.895L126.305 11.18H127.92L130.113 16.569L132.255 11.18H133.785ZM135.407 11.86C135.407 11.5993 135.498 11.3783 135.679 11.197C135.872 11.0157 136.093 10.925 136.342 10.925C136.603 10.925 136.824 11.0157 137.005 11.197C137.186 11.3783 137.277 11.5993 137.277 11.86C137.277 12.1093 137.186 12.3303 137.005 12.523C136.824 12.7043 136.603 12.795 136.342 12.795C136.093 12.795 135.872 12.7043 135.679 12.523C135.498 12.3303 135.407 12.1093 135.407 11.86ZM135.407 18.32C135.407 18.0593 135.498 17.8383 135.679 17.657C135.872 17.4757 136.093 17.385 136.342 17.385C136.603 17.385 136.824 17.4757 137.005 17.657C137.186 17.8383 137.277 18.0593 137.277 18.32C137.277 18.5693 137.186 18.7903 137.005 18.983C136.824 19.1643 136.603 19.255 136.342 19.255C136.093 19.255 135.872 19.1643 135.679 18.983C135.498 18.7903 135.407 18.5693 135.407 18.32Z" fill="#636B78"/>
</svg>
