<svg width="343" height="70" viewBox="0 0 343 70" fill="none" xmlns="http://www.w3.org/2000/svg">
<path d="M16 43.1758L15.5039 42.8857L1.98535 35L15.5039 27.1143L16 26.8242V1H327V26.8242L327.496 27.1143L341.014 35L327.496 42.8857L327 43.1758V69H16V43.1758Z" fill="#524336" stroke="#BB8C5F" stroke-width="2"/>
<path d="M94.123 27.6H86.423V40H84.723V26H95.823V40H94.123V27.6ZM98.1199 35.4C98.1199 34.4667 98.3266 33.64 98.7399 32.92C99.1666 32.2 99.7399 31.6333 100.46 31.22C101.18 30.8067 101.987 30.6 102.88 30.6C103.787 30.6 104.593 30.8067 105.3 31.22C106.02 31.6333 106.587 32.2 107 32.92C107.427 33.64 107.64 34.4667 107.64 35.4C107.64 36.32 107.427 37.1467 107 37.88C106.587 38.6 106.02 39.1667 105.3 39.58C104.593 39.9933 103.787 40.2 102.88 40.2C101.987 40.2 101.18 39.9933 100.46 39.58C99.7399 39.1667 99.1666 38.6 98.7399 37.88C98.3266 37.1467 98.1199 36.32 98.1199 35.4ZM99.7399 35.4C99.7399 36.04 99.8733 36.6067 100.14 37.1C100.42 37.5933 100.793 37.9867 101.26 38.28C101.74 38.56 102.28 38.7 102.88 38.7C103.48 38.7 104.013 38.56 104.48 38.28C104.96 37.9867 105.333 37.5933 105.6 37.1C105.88 36.6067 106.02 36.04 106.02 35.4C106.02 34.76 105.88 34.1933 105.6 33.7C105.333 33.1933 104.96 32.8 104.48 32.52C104.013 32.24 103.48 32.1 102.88 32.1C102.28 32.1 101.74 32.24 101.26 32.52C100.793 32.8 100.42 33.1933 100.14 33.7C99.8733 34.1933 99.7399 34.76 99.7399 35.4ZM117.898 30.8V40H116.298V32.3H111.598V36.8C111.598 37.8933 111.345 38.7 110.838 39.22C110.345 39.74 109.578 40 108.538 40V38.54C108.938 38.54 109.278 38.4133 109.558 38.16C109.851 37.9067 109.998 37.4533 109.998 36.8V30.8H117.898ZM128.29 30.8L122.29 44.4H120.49L123.01 38.7L119.49 30.8H121.39L123.97 37.14L126.49 30.8H128.29ZM130.899 30.8V33.44C130.899 34.24 131.039 34.82 131.319 35.18C131.612 35.5267 132.139 35.7 132.899 35.7H134.899V30.8H136.499V40H134.899V37.2H132.899C131.979 37.2 131.252 37.0733 130.719 36.82C130.199 36.5667 129.832 36.1667 129.619 35.62C129.405 35.06 129.299 34.3333 129.299 33.44V30.8H130.899ZM141.206 30.8V36.76L147.306 30.1V40H145.706V34.04L139.606 40.7V30.8H141.206ZM149.004 30.8H154.404V32.3H152.504V40H150.904V32.3H149.004V30.8ZM156.01 30.8H157.61V34.28H159.81C160.756 34.28 161.55 34.5133 162.19 34.98C162.843 35.4333 163.17 36.1533 163.17 37.14C163.17 38.1267 162.843 38.8533 162.19 39.32C161.55 39.7733 160.756 40 159.81 40H156.01V30.8ZM159.81 35.68H157.61V38.6H159.81C160.396 38.6 160.836 38.4733 161.13 38.22C161.423 37.9533 161.57 37.5933 161.57 37.14C161.57 36.6733 161.423 36.3133 161.13 36.06C160.836 35.8067 160.396 35.68 159.81 35.68ZM171.574 30.8H173.174V34.02L176.574 30.8H178.574L174.574 34.6L178.974 40H176.974L173.174 35.34V40H171.574V30.8ZM179.389 35.4C179.389 34.4667 179.596 33.64 180.009 32.92C180.436 32.2 181.009 31.6333 181.729 31.22C182.449 30.8067 183.256 30.6 184.149 30.6C185.056 30.6 185.863 30.8067 186.569 31.22C187.289 31.6333 187.856 32.2 188.269 32.92C188.696 33.64 188.909 34.4667 188.909 35.4C188.909 36.32 188.696 37.1467 188.269 37.88C187.856 38.6 187.289 39.1667 186.569 39.58C185.863 39.9933 185.056 40.2 184.149 40.2C183.256 40.2 182.449 39.9933 181.729 39.58C181.009 39.1667 180.436 38.6 180.009 37.88C179.596 37.1467 179.389 36.32 179.389 35.4ZM181.009 35.4C181.009 36.04 181.143 36.6067 181.409 37.1C181.689 37.5933 182.063 37.9867 182.529 38.28C183.009 38.56 183.549 38.7 184.149 38.7C184.749 38.7 185.283 38.56 185.749 38.28C186.229 37.9867 186.603 37.5933 186.869 37.1C187.149 36.6067 187.289 36.04 187.289 35.4C187.289 34.76 187.149 34.1933 186.869 33.7C186.603 33.1933 186.229 32.8 185.749 32.52C185.283 32.24 184.749 32.1 184.149 32.1C183.549 32.1 183.009 32.24 182.529 32.52C182.063 32.8 181.689 33.1933 181.409 33.7C181.143 34.1933 181.009 34.76 181.009 35.4ZM199.211 40H191.111V41.8H189.411V38.5H191.051L195.111 30.1L199.171 38.5H200.811V41.8H199.211V40ZM195.111 33.56L192.831 38.5H197.391L195.111 33.56ZM209.213 30.8H212.613C213.186 30.8 213.706 30.8867 214.173 31.06C214.653 31.22 215.04 31.4867 215.333 31.86C215.626 32.22 215.773 32.7 215.773 33.3C215.773 33.82 215.633 34.2467 215.353 34.58C215.073 34.9133 214.706 35.1667 214.253 35.34C214.826 35.46 215.286 35.6867 215.633 36.02C215.993 36.3533 216.173 36.8467 216.173 37.5C216.173 38.1933 215.94 38.7867 215.473 39.28C215.02 39.76 214.266 40 213.213 40H209.213V30.8ZM212.613 32.2H210.813V34.66H212.613C213.093 34.66 213.473 34.54 213.753 34.3C214.033 34.06 214.173 33.76 214.173 33.4C214.173 33.04 214.033 32.7533 213.753 32.54C213.473 32.3133 213.093 32.2 212.613 32.2ZM212.813 36.04H210.813V38.6H212.813C213.413 38.6 213.853 38.4733 214.133 38.22C214.426 37.9667 214.573 37.66 214.573 37.3C214.573 36.94 214.426 36.64 214.133 36.4C213.853 36.16 213.413 36.04 212.813 36.04ZM224.891 35.76C225.358 36.6133 225.878 37.3 226.451 37.82C227.038 38.34 227.751 38.6 228.591 38.6C229.338 38.6 229.938 38.3933 230.391 37.98C230.845 37.5667 231.071 37.04 231.071 36.4C231.071 35.7733 230.925 35.2733 230.631 34.9C230.338 34.5267 229.951 34.2267 229.471 34C229.005 33.76 228.505 33.5467 227.971 33.36C227.625 33.24 227.238 33.0867 226.811 32.9C226.385 32.7 225.978 32.4533 225.591 32.16C225.205 31.8533 224.885 31.48 224.631 31.04C224.391 30.6 224.271 30.06 224.271 29.42C224.271 28.7267 224.445 28.1067 224.791 27.56C225.138 27.0133 225.618 26.5867 226.231 26.28C226.845 25.96 227.545 25.8 228.331 25.8C229.091 25.8 229.751 25.9467 230.311 26.24C230.885 26.52 231.371 26.8867 231.771 27.34C232.171 27.78 232.485 28.2467 232.711 28.74L231.251 29.58C231.078 29.2333 230.858 28.8933 230.591 28.56C230.325 28.2267 229.998 27.9533 229.611 27.74C229.238 27.5267 228.778 27.42 228.231 27.42C227.471 27.42 226.918 27.6067 226.571 27.98C226.225 28.34 226.051 28.7467 226.051 29.2C226.051 29.7867 226.285 30.3 226.751 30.74C227.218 31.18 228.065 31.6133 229.291 32.04C229.665 32.1733 230.058 32.3467 230.471 32.56C230.885 32.7733 231.265 33.0467 231.611 33.38C231.971 33.7 232.265 34.0933 232.491 34.56C232.718 35.0133 232.831 35.56 232.831 36.2C232.831 37.0133 232.625 37.72 232.211 38.32C231.811 38.92 231.285 39.3867 230.631 39.72C229.978 40.04 229.278 40.2 228.531 40.2C227.771 40.2 227.065 40.04 226.411 39.72C225.771 39.3867 225.205 38.9533 224.711 38.42C224.231 37.8733 223.838 37.2933 223.531 36.68L224.891 35.76ZM237.269 30.54L236.229 40H234.529L236.229 25.3L241.829 35.44L247.429 25.3L249.129 40H247.429L246.389 30.54L241.829 38.7L237.269 30.54ZM252.04 35.76C252.507 36.6133 253.027 37.3 253.6 37.82C254.187 38.34 254.9 38.6 255.74 38.6C256.487 38.6 257.087 38.3933 257.54 37.98C257.993 37.5667 258.22 37.04 258.22 36.4C258.22 35.7733 258.073 35.2733 257.78 34.9C257.487 34.5267 257.1 34.2267 256.62 34C256.153 33.76 255.653 33.5467 255.12 33.36C254.773 33.24 254.387 33.0867 253.96 32.9C253.533 32.7 253.127 32.4533 252.74 32.16C252.353 31.8533 252.033 31.48 251.78 31.04C251.54 30.6 251.42 30.06 251.42 29.42C251.42 28.7267 251.593 28.1067 251.94 27.56C252.287 27.0133 252.767 26.5867 253.38 26.28C253.993 25.96 254.693 25.8 255.48 25.8C256.24 25.8 256.9 25.9467 257.46 26.24C258.033 26.52 258.52 26.8867 258.92 27.34C259.32 27.78 259.633 28.2467 259.86 28.74L258.4 29.58C258.227 29.2333 258.007 28.8933 257.74 28.56C257.473 28.2267 257.147 27.9533 256.76 27.74C256.387 27.5267 255.927 27.42 255.38 27.42C254.62 27.42 254.067 27.6067 253.72 27.98C253.373 28.34 253.2 28.7467 253.2 29.2C253.2 29.7867 253.433 30.3 253.9 30.74C254.367 31.18 255.213 31.6133 256.44 32.04C256.813 32.1733 257.207 32.3467 257.62 32.56C258.033 32.7733 258.413 33.0467 258.76 33.38C259.12 33.7 259.413 34.0933 259.64 34.56C259.867 35.0133 259.98 35.56 259.98 36.2C259.98 37.0133 259.773 37.72 259.36 38.32C258.96 38.92 258.433 39.3867 257.78 39.72C257.127 40.04 256.427 40.2 255.68 40.2C254.92 40.2 254.213 40.04 253.56 39.72C252.92 39.3867 252.353 38.9533 251.86 38.42C251.38 37.8733 250.987 37.2933 250.68 36.68L252.04 35.76Z" fill="#FAF6F2"/>
</svg>
