<svg width="40" height="40" viewBox="0 0 40 40" fill="none" xmlns="http://www.w3.org/2000/svg">
<rect x="0.5" y="0.5" width="39" height="39" fill="#050402"/>
<rect x="0.5" y="0.5" width="39" height="39" stroke="#BB8C5F"/>
<path fill-rule="evenodd" clip-rule="evenodd" d="M32.4564 19.0443C32.4538 25.6 27.1209 30.9342 20.5639 30.9368H20.5589C18.5685 30.9361 16.6128 30.4368 14.8757 29.4893L8.57129 31.1431L10.2585 24.9804C9.21773 23.1768 8.6701 21.131 8.671 19.0349C8.67361 12.4778 14.0086 7.14307 20.5637 7.14307C23.7452 7.14444 26.7311 8.38295 28.9765 10.6309C31.2218 12.8787 32.4577 15.8667 32.4564 19.0443ZM11.4267 28.3176L15.1678 27.3362L15.5288 27.5504C17.0464 28.451 18.7861 28.9276 20.5598 28.9283H20.5639C26.012 28.9283 30.4462 24.4939 30.4484 19.0436C30.4494 16.4023 29.4223 13.9189 27.556 12.0505C25.6898 10.1821 23.2079 9.1526 20.5677 9.15168C15.1154 9.15168 10.6811 13.5856 10.6789 19.0355C10.6782 20.9033 11.2008 22.7223 12.1902 24.296L12.4253 24.67L11.4267 28.3176Z" fill="#BB8C5F"/>
<path d="M26.3195 22.6156C26.2453 22.4917 26.0472 22.4173 25.7501 22.2685C25.4529 22.1198 23.9919 21.401 23.7195 21.3017C23.4472 21.2026 23.249 21.1531 23.0509 21.4504C22.8529 21.7479 22.2834 22.4173 22.11 22.6156C21.9367 22.8139 21.7633 22.8388 21.4663 22.69C21.1691 22.5413 20.2116 22.2275 19.0766 21.2151C18.1932 20.4271 17.5968 19.454 17.4235 19.1565C17.2502 18.859 17.405 18.6983 17.5538 18.5501C17.6875 18.4169 17.851 18.2029 17.9995 18.0295C18.1481 17.856 18.1976 17.732 18.2967 17.5338C18.3957 17.3354 18.3462 17.1619 18.2719 17.0132C18.1976 16.8644 17.6033 15.4018 17.3557 14.8068C17.1145 14.2273 16.8695 14.3058 16.6871 14.2967C16.514 14.288 16.3157 14.2861 16.1176 14.2861C15.9195 14.2861 15.5976 14.3605 15.3252 14.658C15.0528 14.9555 14.2852 15.6744 14.2852 17.137C14.2852 18.5997 15.3499 20.0127 15.4985 20.211C15.6471 20.4094 17.5939 23.4108 20.5748 24.6979C21.2838 25.0041 21.8372 25.1869 22.2688 25.3239C22.9807 25.5501 23.6285 25.5182 24.1405 25.4416C24.7114 25.3563 25.8986 24.7228 26.1463 24.0287C26.3938 23.3345 26.3938 22.7395 26.3195 22.6156Z" fill="#BB8C5F"/>
</svg>
