<svg width="40" height="40" viewBox="0 0 40 40" fill="none" xmlns="http://www.w3.org/2000/svg">
<rect x="0.5" y="0.5" width="39" height="39" fill="#050402"/>
<rect x="0.5" y="0.5" width="39" height="39" stroke="#BB8C5F"/>
<path d="M25.3196 16.9108C25.2294 16.1761 25.0041 15.5993 24.6041 15.0883C24.0847 14.4304 23.421 14.0364 22.4383 13.8027C21.7979 13.647 21.5391 13.6648 21.3075 13.8769C21.0917 14.0757 21.0496 14.474 21.2145 14.732C21.3304 14.9192 21.4642 14.9863 21.8362 15.0595C22.3317 15.1509 22.674 15.2695 22.9855 15.448C23.6465 15.8307 23.9543 16.4295 23.9873 17.3989C24.0027 17.854 24.0419 17.994 24.2005 18.1554C24.4944 18.4505 25.0175 18.3931 25.2394 18.04C25.3208 17.9069 25.3332 17.8489 25.3418 17.5399C25.3475 17.3485 25.3393 17.0637 25.3196 16.9108Z" fill="#BB8C5F"/>
<path d="M27.9083 17.7393C27.7777 15.4886 26.8996 13.6777 25.328 12.4037C24.4425 11.6878 23.3721 11.1955 22.1989 10.9561C21.7691 10.8705 20.9779 10.8011 20.8421 10.8408C20.714 10.8775 20.5328 11.0166 20.4521 11.1423C20.3667 11.2787 20.3474 11.5832 20.4203 11.7593C20.5379 12.0537 20.7566 12.1577 21.3692 12.2114C22.3136 12.2942 23.2876 12.6269 24.0236 13.1193C24.8639 13.6799 25.5318 14.4468 25.9639 15.3479C26.3372 16.1222 26.5669 17.238 26.5605 18.2371C26.5584 18.5985 26.614 18.8026 26.759 18.9518C26.9778 19.1812 27.2968 19.2314 27.5783 19.079C27.8902 18.9145 27.9632 18.6258 27.9083 17.7393Z" fill="#BB8C5F"/>
<path d="M30.7736 26.4066C30.7297 26.278 30.6272 26.0795 30.554 25.9656C30.0928 25.2674 27.6148 23.3233 26.3776 22.6875C25.6712 22.3237 25.1478 22.2025 24.7598 22.3163C24.3425 22.434 24.1229 22.6287 23.4237 23.4997C23.1419 23.8488 22.8528 24.1759 22.7759 24.2273C22.5855 24.3596 22.2122 24.4663 21.9487 24.4663C21.3374 24.4625 20.2283 24.0656 19.3755 23.5438C18.7129 23.1396 17.8638 22.4156 17.2122 21.699C16.4435 20.8574 15.9202 20.115 15.5065 19.2771C14.9721 18.2004 14.8367 17.5425 15.06 17.0611C15.1149 16.9398 15.1881 16.8112 15.221 16.7707C15.254 16.7341 15.5981 16.451 15.9787 16.1423C16.7254 15.547 16.8462 15.411 16.9853 15.0031C17.161 14.4849 17.1134 13.9557 16.8425 13.4229C16.6339 13.0186 16.0885 12.1366 15.6932 11.567C15.1698 10.8173 13.8667 9.21502 13.6068 8.99813C13.1383 8.61597 12.5381 8.54978 11.8755 8.80708C11.1764 9.07903 9.86601 10.1374 9.30597 10.8761C8.80084 11.5449 8.60691 12.019 8.5776 12.6438C8.552 13.1582 8.5959 13.3714 8.86677 14.0292C10.9861 19.1889 14.1485 23.3086 18.4933 26.5794C20.7627 28.2882 23.1163 29.5892 25.5577 30.4786C26.9815 30.9967 27.6001 31.0224 28.3285 30.5962C28.636 30.4124 29.3973 29.6296 29.8219 29.06C30.5247 28.1118 30.7846 27.6745 30.8578 27.3254C30.909 27.0865 30.8688 26.6713 30.7736 26.4066Z" fill="#BB8C5F"/>
<path d="M30.5447 18.2554C30.4978 16.9823 30.284 15.938 29.8381 14.7737C29.3979 13.6284 28.9524 12.8811 28.1111 11.8702C27.3156 10.9225 26.6978 10.3813 25.7179 9.77892C24.3508 8.93963 22.6871 8.38422 20.8226 8.15064C20.1867 8.06901 20.0429 8.07484 19.8478 8.20532C19.4698 8.45252 19.4748 9.06907 19.854 9.31255C19.9796 9.39001 20.091 9.41822 20.5996 9.48496C21.3803 9.59034 21.8824 9.68965 22.4781 9.8526C24.8142 10.4928 26.6106 11.8013 27.8116 13.7438C28.8167 15.3629 29.2339 16.9821 29.1746 19.0501C29.154 19.7492 29.169 19.8723 29.2756 20.0403C29.4798 20.3533 30.0181 20.4153 30.2943 20.1555C30.4662 19.9971 30.4986 19.8783 30.5324 19.2799C30.5486 18.9677 30.5521 18.507 30.5447 18.2554Z" fill="#BB8C5F"/>
</svg>
